<svg width="26" height="31" viewBox="0 0 26 31" fill="none" xmlns="http://www.w3.org/2000/svg">
<path fill-rule="evenodd" clip-rule="evenodd" d="M16.7914 0.348297C17.2028 2.94379 17.4509 5.59039 17.5358 8.28785C17.7221 8.55407 17.9702 8.59551 18.2801 8.4119C20.6252 7.07384 23.0237 5.87472 25.4753 4.81429C26.0936 7.92709 25.7214 10.9044 24.3588 13.7463C22.0027 15.0067 19.6871 16.3301 17.4117 17.7161C17.3291 20.6108 17.2462 23.5052 17.1636 26.3999C14.8481 28.9019 11.9948 30.3906 8.60376 30.8659C8.69618 28.137 8.77887 25.4078 8.85187 22.6783C8.51111 22.6393 8.18028 22.6808 7.85942 22.8023C5.74916 24.0645 3.59886 25.2636 1.40854 26.3999C1.26314 26.3481 1.13909 26.2652 1.03637 26.1518C0.354784 23.8506 0.272088 21.535 0.788258 19.2047C1.06681 18.5227 1.43898 17.9024 1.90476 17.3439C4.52838 16.0535 7.05083 14.606 9.47214 13.002C9.55484 10.2727 9.63756 7.54352 9.72025 4.81429C11.5433 2.4488 13.9003 0.960139 16.7914 0.348297Z" fill="#20E6CE"/>
</svg>
